<svg xmlns="http://www.w3.org/2000/svg" viewBox="0 0 1576 174"><path fill="currentColor" fill-rule="evenodd" d="M313.80 172.98C303.23 171.78 298.88 170.51 289.00 165.79C277.54 160.30 269.07 151.80 263.30 139.98C261.03 135.32 258.68 129.12 258.08 126.20C257.38 122.76 257.00 100.74 257.00 63.45L257.00 6.00L271.47 6.00L285.94 6.00L286.22 65.25L286.50 124.50L288.80 129.50C293.48 139.69 302.26 146.19 314.47 148.53C324.90 150.52 332.19 150.38 341.50 148.00C354.72 144.62 363.97 137.04 367.99 126.29C369.92 121.15 370.00 118.55 370.00 63.46L370.00 6.00L382.05 6.00L394.10 6.00L393.77 66.25C393.43 126.40 393.43 126.51 391.11 132.78C389.84 136.24 386.48 142.30 383.65 146.25C369.03 166.64 343.58 176.37 313.80 172.98ZM1425.50 173.03C1386.92 168.50 1359.80 144.40 1352.46 108.12C1350.10 96.47 1350.85 71.55 1353.85 61.62C1362.69 32.39 1382.71 12.97 1411.92 5.28C1420.19 3.10 1423.68 2.75 1437.50 2.71C1454.97 2.66 1463.02 3.94 1474.80 8.65C1484.85 12.68 1492.45 17.52 1500.21 24.84C1512.15 36.10 1519.62 49.41 1523.64 66.58C1526.32 78.02 1526.07 100.47 1523.14 111.50C1514.73 143.17 1490.94 165.39 1458.50 171.86C1451.07 173.34 1433.47 173.96 1425.50 173.03ZM51.33 168.57C51.64 167.78 70.02 129.53 92.18 83.57L132.48 0.00L138.56 -0.00L144.65 -0.00L182.99 84.25C204.09 130.59 221.52 168.85 221.75 169.28C221.97 169.70 214.87 169.93 205.98 169.78L189.82 169.50L183.81 156.50C180.51 149.35 168.60 123.25 157.35 98.50C146.10 73.75 136.58 53.18 136.20 52.80C135.52 52.12 94.42 132.59 82.60 157.75L76.84 170.00L63.81 170.00C52.93 170.00 50.88 169.76 51.33 168.57ZM454.00 88.05L454.00 6.00L506.75 6.01C567.94 6.03 571.37 6.39 587.50 14.40C607.54 24.35 620.80 40.47 627.24 62.70C629.20 69.48 629.50 72.79 629.50 88.00C629.50 103.56 629.24 106.33 627.16 112.96C618.45 140.70 598.98 159.68 571.50 167.22C563.80 169.34 561.46 169.43 508.75 169.76L454.00 170.11L454.00 88.05ZM651.27 167.26C651.95 165.75 670.31 127.61 692.07 82.51L731.65 0.50L738.02 0.50L744.40 0.50L782.70 84.49C803.77 130.69 821.00 168.83 821.00 169.24C821.00 169.66 813.91 169.99 805.25 169.99L789.50 169.98L783.19 156.24C779.72 148.68 767.60 122.09 756.25 97.15C737.66 56.28 735.48 51.98 734.23 53.65C733.47 54.67 719.99 81.26 704.29 112.75L675.73 170.00L662.89 170.00L650.04 170.00L651.27 167.26ZM860.00 160.04L860.00 150.08L864.22 148.94C875.79 145.82 889.50 136.46 902.65 122.69C913.26 111.59 921.24 100.13 931.01 82.00C940.94 63.56 949.06 50.70 958.22 38.92L965.94 29.00L912.97 29.00L860.00 29.00L860.00 17.50L860.00 6.00L938.00 6.00L1016.00 6.00L1016.00 16.43L1016.00 26.86L1008.25 30.58C1001.72 33.71 998.69 36.12 988.96 45.90C975.76 59.17 967.86 70.26 954.00 95.00C948.92 104.08 942.73 114.65 940.25 118.50C935.12 126.47 924.30 140.56 921.13 143.40C919.96 144.45 919.00 145.69 919.00 146.15C919.00 146.62 940.83 147.00 967.50 147.00L1016.00 147.00L1016.00 158.50L1016.00 170.00L938.00 170.00L860.00 170.00L860.00 160.04ZM1061.00 160.14L1061.00 150.28L1067.53 148.14C1084.38 142.61 1105.17 124.72 1119.46 103.46C1122.41 99.08 1128.72 88.30 1133.49 79.50C1142.91 62.12 1153.97 44.97 1161.86 35.50L1166.86 29.50L1113.93 29.24L1061.00 28.98L1061.00 17.49L1061.00 6.00L1139.00 6.00L1217.00 6.00L1217.00 16.54L1217.00 27.07L1212.49 29.00C1205.16 32.14 1197.00 38.26 1188.95 46.64C1176.03 60.09 1169.04 70.15 1154.06 96.89C1149.00 105.90 1142.57 116.70 1139.76 120.89C1134.38 128.91 1124.34 141.65 1121.61 143.91C1120.73 144.64 1120.00 145.64 1120.00 146.12C1120.00 146.61 1141.34 147.00 1168.50 147.00L1217.00 147.00L1217.00 158.50L1217.00 170.00L1139.00 170.00L1061.00 170.00L1061.00 160.14ZM1273.00 88.00L1273.00 6.00L1287.50 6.00L1302.00 6.00L1302.00 88.00L1302.00 170.00L1287.50 170.00L1273.00 170.00L1273.00 88.00ZM1458.42 149.10C1475.67 142.96 1487.60 128.95 1493.16 108.30C1496.10 97.34 1496.10 78.64 1493.14 67.66C1489.80 55.22 1485.48 47.42 1477.54 39.42C1466.55 28.38 1455.33 24.00 1438.00 24.00C1421.13 24.00 1409.55 28.47 1398.85 39.11C1394.17 43.77 1391.16 47.91 1388.64 53.14C1382.73 65.44 1381.50 71.51 1381.50 88.50C1381.50 105.21 1383.13 112.71 1389.34 124.50C1395.65 136.48 1409.24 147.09 1422.63 150.48C1431.19 152.64 1450.56 151.89 1458.42 149.10ZM561.13 145.56C573.54 142.93 584.97 134.95 591.98 124.03C599.12 112.90 602.84 94.17 600.93 78.91C598.34 58.16 589.12 43.14 574.03 35.10C563.74 29.61 558.52 29.04 518.75 29.02L483.00 29.00L483.00 88.00L483.00 147.00L518.75 146.98C545.59 146.97 556.15 146.62 561.13 145.56ZM1531.24 34.43C1523.66 29.88 1520.76 19.69 1524.85 11.98C1525.87 10.07 1528.61 7.15 1530.94 5.50C1534.65 2.87 1536.02 2.50 1542.00 2.50C1547.98 2.50 1549.35 2.87 1553.06 5.50C1560.78 10.97 1563.14 19.89 1559.00 28.00C1554.53 36.76 1540.54 40.00 1531.24 34.43ZM1550.40 31.73C1557.72 27.53 1559.95 18.53 1555.26 12.09C1553.00 8.97 1545.57 5.00 1542.00 5.00C1538.33 5.00 1530.98 9.00 1528.56 12.32C1525.70 16.25 1525.77 23.48 1528.72 27.61C1533.32 34.06 1543.10 35.92 1550.40 31.73ZM1534.00 19.00L1534.00 10.00L1539.35 10.00C1542.29 10.00 1546.12 10.49 1547.86 11.10C1551.97 12.54 1553.09 16.35 1550.23 19.21L1548.21 21.24L1550.20 24.62L1552.20 28.00L1549.85 27.99C1548.27 27.98 1546.76 26.83 1545.24 24.49C1543.66 22.04 1542.24 21.00 1540.49 21.00C1538.31 21.00 1538.00 21.44 1538.00 24.50C1538.00 27.33 1537.62 28.00 1536.00 28.00C1534.15 28.00 1534.00 27.33 1534.00 19.00ZM1546.88 17.10C1549.29 15.57 1547.04 14.00 1542.44 14.00C1538.67 14.00 1538.00 14.30 1538.00 16.00C1538.00 17.65 1538.66 18.00 1541.75 17.98C1543.81 17.98 1546.12 17.58 1546.88 17.10Z"/></svg>