<?xml version="1.0" encoding="UTF-8"?>
<svg version="1.1" id="Layer_1" xmlns="http://www.w3.org/2000/svg" xmlns:xlink="http://www.w3.org/1999/xlink" x="0px" y="0px"
	 viewBox="0 0 78.6 20" style="enable-background:new 0 0 78.6 20;" xml:space="preserve">
<style type="text/css">
	.st0{fill:#000000;}
	.st1{fill:#ED1C24;}
</style>
<g>
	<path class="st0" d="M1.6,10.2c-0.7,0-1.2,0.5-1.2,1.2v7.3c0,0.7,0.5,1.2,1.2,1.2h5.3v-2.4H3.5v-4.9h3l0.5-1.2v-1.2H1.6L1.6,10.2z
		 M12,12.7v4.9h-1.2v-4.9H12L12,12.7z M13.8,20c0.7,0,1.2-0.5,1.2-1.2v-7.3c0-0.7-0.5-1.2-1.2-1.2H9c-0.7,0-1.2,0.5-1.2,1.2v7.3
		C7.7,19.5,8.2,20,9,20H13.8L13.8,20z M20.7,14.7l-1.4-4.5h-3.2V20h2.8v-1.2l-0.4-3.3h0.2l1.4,4.5h3.2v-9.8h-2.8v1.2l0.4,3.3H20.7
		L20.7,14.7z M25.9,12.7V20h3.1v-7.3h1.5l0.5-1.2v-1.2h-6.8v2.5H25.9L25.9,12.7z M35.8,12.7v1.8h-1.2v-1.8H35.8L35.8,12.7z
		 M31.6,10.2V20h3.1v-3h0.6l0.8,3h3v-1.2l-1-2.4c0.5-0.1,0.8-0.6,0.8-1.1v-3.8c0-0.7-0.5-1.2-1.2-1.2H31.6L31.6,10.2z M43.1,15.6
		l0.3-2.9h0.3l0.3,2.9H43.1L43.1,15.6z M41,10.2l-1.4,8.6V20h3l0.2-2h1.3l0.2,2h3.1v-1.2L46,10.2H41L41,10.2z M49.5,10.2
		c-0.7,0-1.2,0.5-1.2,1.2v7.3c0,0.7,0.5,1.2,1.2,1.2h5.3v-2.4h-3.5v-4.9h3l0.5-1.2v-1.2H49.5L49.5,10.2z M57,12.7V20H60v-7.3h1.5
		l0.5-1.2v-1.2h-6.8v2.5H57L57,12.7z M66.9,12.7v4.9h-1.2v-4.9H66.9L66.9,12.7z M68.8,20c0.7,0,1.2-0.5,1.2-1.2v-7.3
		c0-0.7-0.5-1.2-1.2-1.2h-4.9c-0.7,0-1.2,0.5-1.2,1.2v7.3c0,0.7,0.5,1.2,1.2,1.2H68.8L68.8,20z M75.4,12.7v1.8h-1.2v-1.8H75.4
		L75.4,12.7z M71.1,10.2V20h3.1v-3h0.6l0.8,3h3v-1.2l-1-2.4c0.5-0.1,0.8-0.6,0.8-1.1v-3.8c0-0.7-0.5-1.2-1.2-1.2H71.1L71.1,10.2z"/>
	<path class="st0" d="M46.8,9.1h4.3l1.4-8.3V0h-2.8l-0.6,6.8h-0.3L48.2,0h-2.8v0.7L46.8,9.1L46.8,9.1z M56,9.1V0h-2.8v9.1H56L56,9.1
		z M59.8,2.3H61v4.5h-1.1V2.3L59.8,2.3z M62.7,9.1c0.7,0,1.1-0.5,1.1-1.1V1.1c0-0.7-0.5-1.1-1.1-1.1H57v9.1H62.7L62.7,9.1z
		 M70.9,9.1V6.8h-3.2V5.5h2.8V3.3h-2.8v-1h2.8l0.5-1.2V0h-6.1v9.1H70.9L70.9,9.1z M75.6,2.3v4.5h-1.1V2.3H75.6L75.6,2.3z M77.3,9.1
		c0.7,0,1.1-0.5,1.1-1.1V1.1C78.4,0.5,78,0,77.3,0h-4.5c-0.7,0-1.1,0.5-1.1,1.1v6.8c0,0.7,0.5,1.1,1.1,1.1H77.3L77.3,9.1z"/>
	<path class="st1" d="M41.5,5.5v1.2h-0.7V5.5H41.5L41.5,5.5z M39.1,9.1h4.1c0.7,0,1.1-0.5,1.1-1.1V5.5h0.8V3.3h-4.3v-1h3.1l0.4-1.1
		V0h-5.3C38.4,0,38,0.5,38,1.1v2.1c0,0.7,0.5,1.1,1.2,1.1v0.2C38.5,4.5,38,5,38,5.6v2.3C38,8.6,38.4,9.1,39.1,9.1L39.1,9.1z"/>
	<path class="st0" d="M0.8,4.6l2.5,1.6v0.6H0v2.3h4.9c0.7,0,1.1-0.5,1.1-1.1V5.9c0-0.7-0.1-1.1-0.8-1.5L2.8,2.7V2.3h2.8l0.4-1.2V0
		H1.1C0.5,0,0,0.5,0,1.1V3C0,3.8,0.1,4.1,0.8,4.6L0.8,4.6z M10.8,2.3v4.5H9.7V2.3H10.8L10.8,2.3z M12.5,9.1c0.7,0,1.1-0.5,1.1-1.1
		V1.1c0-0.7-0.5-1.1-1.1-1.1H8C7.3,0,6.8,0.5,6.8,1.1v6.8c0,0.7,0.5,1.1,1.1,1.1H12.5L12.5,9.1z M18.6,0v6.8h-1.1V0h-2.8v7.9
		c0,0.7,0.5,1.1,1.1,1.1h5.7V0H18.6L18.6,0z M26.8,4.2L25.4,0h-3v9.1H25V7.9l-0.4-3.1h0.2l1.3,4.2h3V0h-2.6v1.1L27,4.2H26.8
		L26.8,4.2z M33.1,2.3h1.1v4.5h-1.1V2.3L33.1,2.3z M35.9,9.1c0.7,0,1.1-0.5,1.1-1.1V1.1C37,0.5,36.6,0,35.9,0h-5.7v9.1H35.9
		L35.9,9.1z"/>
</g>
</svg>
